<?xml version="1.0" encoding="UTF-8" standalone="no"?>
<!-- Created with Inkscape (http://www.inkscape.org/) -->

<svg
   width="512"
   height="512"
   viewBox="0 0 512 512"
   version="1.1"
   id="svg1"
   xml:space="preserve"
   xmlns:xlink="http://www.w3.org/1999/xlink"
   xmlns="http://www.w3.org/2000/svg"
   xmlns:svg="http://www.w3.org/2000/svg"><defs
     id="defs1"><linearGradient
       id="linearGradient5"><stop
         style="stop-color:#0e1879;stop-opacity:1;"
         offset="0"
         id="stop5" /><stop
         style="stop-color:#074681;stop-opacity:1;"
         offset="1"
         id="stop6" /></linearGradient><linearGradient
       id="linearGradient3"><stop
         style="stop-color:#077236;stop-opacity:1;"
         offset="0"
         id="stop3" /><stop
         style="stop-color:#0ec730;stop-opacity:1;"
         offset="1"
         id="stop4" /></linearGradient><linearGradient
       xlink:href="#linearGradient3"
       id="linearGradient4"
       x1="281.10556"
       y1="356.92358"
       x2="462.8024"
       y2="219.96446"
       gradientUnits="userSpaceOnUse" /><linearGradient
       xlink:href="#linearGradient5"
       id="linearGradient6"
       x1="202.8279"
       y1="356.22278"
       x2="279.70471"
       y2="180.91164"
       gradientUnits="userSpaceOnUse" /><linearGradient
       xlink:href="#linearGradient3"
       id="linearGradient2"
       gradientUnits="userSpaceOnUse"
       x1="281.10556"
       y1="356.92358"
       x2="462.8024"
       y2="219.96446" /><linearGradient
       xlink:href="#linearGradient3"
       id="linearGradient7"
       gradientUnits="userSpaceOnUse"
       x1="281.10556"
       y1="356.92358"
       x2="462.8024"
       y2="219.96446" /><linearGradient
       xlink:href="#linearGradient3"
       id="linearGradient8"
       gradientUnits="userSpaceOnUse"
       x1="281.10556"
       y1="356.92358"
       x2="462.8024"
       y2="219.96446" /><linearGradient
       xlink:href="#linearGradient3"
       id="linearGradient9"
       gradientUnits="userSpaceOnUse"
       x1="281.10556"
       y1="356.92358"
       x2="462.8024"
       y2="219.96446" /><linearGradient
       xlink:href="#linearGradient3"
       id="linearGradient10"
       gradientUnits="userSpaceOnUse"
       x1="281.10556"
       y1="356.92358"
       x2="462.8024"
       y2="219.96446" /><linearGradient
       xlink:href="#linearGradient3"
       id="linearGradient11"
       gradientUnits="userSpaceOnUse"
       x1="281.10556"
       y1="356.92358"
       x2="462.8024"
       y2="219.96446" /><linearGradient
       xlink:href="#linearGradient5"
       id="linearGradient12"
       gradientUnits="userSpaceOnUse"
       x1="202.8279"
       y1="356.22278"
       x2="279.70471"
       y2="180.91164" /><linearGradient
       xlink:href="#linearGradient5"
       id="linearGradient13"
       gradientUnits="userSpaceOnUse"
       x1="202.8279"
       y1="356.22278"
       x2="279.70471"
       y2="180.91164" /><linearGradient
       xlink:href="#linearGradient5"
       id="linearGradient14"
       gradientUnits="userSpaceOnUse"
       x1="202.8279"
       y1="356.22278"
       x2="279.70471"
       y2="180.91164" /><linearGradient
       xlink:href="#linearGradient5"
       id="linearGradient15"
       gradientUnits="userSpaceOnUse"
       x1="202.8279"
       y1="356.22278"
       x2="279.70471"
       y2="180.91164" /><linearGradient
       xlink:href="#linearGradient5"
       id="linearGradient16"
       gradientUnits="userSpaceOnUse"
       x1="202.8279"
       y1="356.22278"
       x2="279.70471"
       y2="180.91164" /><linearGradient
       xlink:href="#linearGradient5"
       id="linearGradient17"
       gradientUnits="userSpaceOnUse"
       x1="202.8279"
       y1="356.22278"
       x2="279.70471"
       y2="180.91164" /><linearGradient
       xlink:href="#linearGradient5"
       id="linearGradient18"
       gradientUnits="userSpaceOnUse"
       x1="202.8279"
       y1="356.22278"
       x2="279.70471"
       y2="180.91164" /><linearGradient
       xlink:href="#linearGradient5"
       id="linearGradient19"
       gradientUnits="userSpaceOnUse"
       x1="202.8279"
       y1="356.22278"
       x2="279.70471"
       y2="180.91164" /></defs><g
     id="layer3"><g
       id="g2"
       style="fill:url(#linearGradient4);fill-opacity:1;fill-rule:nonzero;stroke:none;stroke-opacity:1"><path
         id="rect10"
         style="fill:url(#linearGradient2);stroke-width:1.92137"
         d="m 277.33076,379.47609 v 14.91689 h -14.7105 v 43.32091 h 14.7105 v 28.40401 h 5.31378 v -28.40401 h 15.32595 v -43.32091 h -15.32595 v -14.91689 z" /><path
         id="rect11"
         style="fill:url(#linearGradient7);stroke-width:1.92137"
         d="m 315.95331,244.60488 v 29.83377 h -13.07808 v 142.22647 h 13.07808 v 45.36612 h 6.13188 v -45.36612 h 15.12328 V 274.43865 h -15.12328 v -29.83377 z" /><path
         id="rect12"
         style="fill:url(#linearGradient8);stroke-width:1.92137"
         d="m 357.03012,267.6951 v 40.05232 h -14.10257 v 52.92777 h 14.10257 v 48.83732 h 6.9462 v -48.83732 h 13.28447 V 307.74742 H 363.97632 V 267.6951 Z" /><path
         id="rect13"
         style="fill:url(#linearGradient9);stroke-width:1.92137"
         d="m 350.89824,81.941327 v 50.064463 h -14.3052 v 62.12184 h 14.3052 v 14.3052 h 5.92547 v -14.3052 h 14.30521 V 132.00579 H 356.82371 V 81.941327 Z" /><path
         id="rect14"
         style="fill:url(#linearGradient10);stroke-width:1.92137"
         d="m 311.86665,62.115933 v 49.250147 h -14.7105 v 41.27944 h 14.7105 v 41.6885 h 5.72282 v -41.6885 h 14.3052 v -41.27944 h -14.3052 V 62.115933 Z" /><path
         id="rect15"
         style="fill:url(#linearGradient11);stroke-width:1.92137"
         d="m 274.26857,36.166169 v 29.424755 h -14.71426 v 39.440626 h 14.71426 v 25.13543 h 4.69835 V 105.03155 H 294.0902 V 65.590924 H 278.96692 V 36.166169 Z" /></g><g
       id="g3"
       style="fill:url(#linearGradient6)"><path
         id="rect19"
         style="fill:url(#linearGradient12);fill-opacity:1;fill-rule:nonzero;stroke:none;stroke-width:1.92137;stroke-opacity:1"
         d="m 159.62803,302.43364 v 25.54447 H 144.7074 v 51.90702 h 14.92063 v 45.15972 h 5.92549 v -45.15972 h 13.89616 v -51.90702 h -13.89616 v -25.54447 z" /><path
         id="rect20"
         style="fill:url(#linearGradient13);fill-opacity:1;fill-rule:nonzero;stroke:none;stroke-width:1.92137;stroke-opacity:1"
         d="m 198.45323,324.09408 v 34.53589 h -13.69352 v 39.64329 h 13.69352 v 35.56037 h 5.92548 v -35.56037 h 13.89616 v -39.64329 h -13.89616 v -34.53589 z" /><path
         id="rect21"
         style="fill:url(#linearGradient14);fill-opacity:1;fill-rule:nonzero;stroke:none;stroke-width:1.92137;stroke-opacity:1"
         d="m 237.68748,365.78258 v 24.52374 h -14.30522 v 51.90327 h 14.30522 v 34.33324 h 5.92547 v -34.33324 h 14.3052 v -51.90327 h -14.3052 v -24.52374 z" /><path
         id="rect26"
         style="fill:url(#linearGradient15);fill-opacity:1;fill-rule:nonzero;stroke:none;stroke-width:1.92137;stroke-opacity:1"
         d="m 157.65413,100.4833 v 64.44474 h -14.16262 v 49.70795 h 14.16262 v 36.12327 h 5.77912 v -36.12327 h 14.16259 V 164.92804 H 163.43325 V 100.4833 Z" /><path
         id="rect27"
         style="fill:url(#linearGradient16);fill-opacity:1;fill-rule:nonzero;stroke:none;stroke-width:1.92137;stroke-opacity:1"
         d="m 196.37801,66.38274 v 35.54536 h -14.44782 v 135.25022 h 14.44782 v 37.56806 h 6.36078 v -37.56806 h 14.4478 V 101.9281 h -14.4478 V 66.38274 Z" /><path
         id="rect30"
         style="fill:url(#linearGradient17);fill-opacity:1;fill-rule:nonzero;stroke:none;stroke-width:1.92137;stroke-opacity:1"
         d="m 236.11511,193.24948 v 20.29073 h -13.95622 v 52.10967 h 13.95622 v 22.24588 h 6.21442 v -22.24588 h 14.36525 v -52.10967 h -14.36525 v -20.29073 z" /><path
         id="rect31"
         style="fill:url(#linearGradient18);fill-opacity:1;fill-rule:nonzero;stroke:none;stroke-width:1.92137;stroke-opacity:1"
         d="m 275.99856,221.42834 v 25.42439 h -13.99375 v 52.10592 h 13.99375 v 13.64849 h 5.49016 v -13.64849 h 14.2339 v -52.10592 h -14.2339 v -25.42439 z" /><path
         id="rect29"
         style="fill:url(#linearGradient19);fill-opacity:1;fill-rule:nonzero;stroke:none;stroke-width:1.92137;stroke-opacity:1"
         d="m 235.10562,46.152051 v 23.698148 h -14.45155 v 52.597521 h 14.45155 v 22.82754 h 5.49018 v -22.82754 h 14.1626 V 69.850199 H 240.5958 V 46.152051 Z" /></g></g></svg>
